<?xml version="1.0" encoding="UTF-8" standalone="no" ?>
<!DOCTYPE svg PUBLIC "-//W3C//DTD SVG 1.1//EN" "http://www.w3.org/Graphics/SVG/1.1/DTD/svg11.dtd">
<svg xmlns="http://www.w3.org/2000/svg" xmlns:xlink="http://www.w3.org/1999/xlink" version="1.1" width="1080" height="1080" viewBox="0 0 1080 1080" xml:space="preserve">
<desc>Created with Fabric.js 5.2.4</desc>
<defs>
</defs>
<g transform="matrix(1 0 0 1 540 540)" id="6d220522-9ad9-41f3-9cfe-67c30adc1b6c"  >
<rect style="stroke: none; stroke-width: 1; stroke-dasharray: none; stroke-linecap: butt; stroke-dashoffset: 0; stroke-linejoin: miter; stroke-miterlimit: 4; fill: rgb(255,255,255); fill-rule: nonzero; opacity: 1; visibility: hidden;" vector-effect="non-scaling-stroke"  x="-540" y="-540" rx="0" ry="0" width="1080" height="1080" />
</g>
<g transform="matrix(Infinity NaN NaN Infinity 0 0)" id="7c0c2c79-79a3-44bd-940b-81bc0e60a7c9"  >
</g>
<g transform="matrix(0.83 0 0 0.83 540 540)"  >
<g style="" vector-effect="non-scaling-stroke"   >
		<g transform="matrix(0.13 0 0 -0.13 0 0)"  >
<path style="stroke: none; stroke-width: 1; stroke-dasharray: none; stroke-linecap: butt; stroke-dashoffset: 0; stroke-linejoin: miter; stroke-miterlimit: 4; fill: rgb(0,0,0); fill-rule: nonzero; opacity: 1;" vector-effect="non-scaling-stroke"  transform=" translate(-6747.5, -10823.93)" d="M 6580 15350 C 6412 15331 6249 15224 6150 15070 C 6108 15005 6094 14971 6069 14870 C 6046 14778 6045 14743 6067 14638 C 6087 14538 6125 14449 6179 14377 C 6202 14347 6220 14318 6220 14311 C 6220 14304 6191 14264 6156 14222 C 6120 14180 6019 14057 5930 13950 C 5841 13843 5762 13754 5755 13752 C 5747 13750 5719 13759 5693 13771 C 5654 13789 5625 13793 5537 13794 L 5429 13796 L 5411 13835 C 5393 13874 5358 13959 5298 14110 C 5281 14151 5262 14196 5255 14210 C 5248 14224 5239 14249 5236 14266 C 5229 14295 5234 14304 5297 14367 C 5334 14405 5376 14456 5389 14481 C 5483 14659 5444 14882 5293 15020 C 5202 15103 5109 15140 4990 15140 C 4804 15140 4654 15039 4565 14855 C 4549 14822 4546 14793 4545 14678 C 4545 14552 4543 14539 4525 14527 C 4506 14514 4350 14432 4058 14281 L 3931 14215 L 3889 14258 C 3866 14281 3819 14313 3786 14329 C 3589 14421 3356 14339 3260 14143 C 3230 14080 3228 14069 3228 13974 C 3228 13881 3231 13868 3261 13807 C 3294 13739 3384 13640 3413 13640 C 3421 13640 3433 13633 3440 13625 C 3447 13617 3459 13610 3467 13610 C 3475 13610 3497 13603 3516 13594 L 3550 13578 L 3550 13329 L 3550 13080 L 3523 13069 C 3461 13046 3392 13006 3336 12963 C 3295 12931 3274 12919 3264 12926 C 3248 12937 3127 13022 3035 13085 C 2869 13199 2824 13231 2806 13245 C 2788 13259 2787 13265 2798 13323 C 2827 13477 2737 13629 2587 13679 C 2513 13704 2469 13705 2404 13683 C 2305 13650 2231 13582 2197 13492 C 2175 13437 2175 13338 2197 13275 C 2223 13204 2308 13120 2383 13092 C 2475 13057 2552 13062 2638 13106 L 2708 13142 L 2751 13116 C 2775 13101 2833 13062 2880 13029 C 2927 12996 2976 12961 2990 12952 C 3004 12943 3053 12909 3100 12876 C 3147 12843 3186 12815 3188 12814 C 3197 12809 3189 12767 3166 12700 C 3152 12659 3140 12607 3140 12584 C 3140 12523 3133 12511 3092 12505 C 2933 12480 2856 12466 2803 12454 C 2769 12446 2729 12440 2714 12440 C 2700 12440 2662 12434 2631 12426 C 2600 12418 2549 12409 2517 12405 C 2467 12399 2459 12401 2454 12417 C 2412 12543 2307 12685 2205 12757 C 2088 12838 1899 12897 1791 12885 C 1495 12853 1298 12713 1186 12456 C 1155 12386 1155 12382 1155 12220 C 1155 12039 1155 12037 1228 11892 C 1290 11767 1441 11633 1575 11585 C 1651 11557 1652 11556 1641 11461 C 1636 11415 1628 11374 1622 11368 C 1617 11363 1582 11352 1544 11344 C 1451 11323 1358 11275 1306 11220 C 1224 11134 1170 11008 1170 10905 C 1170 10808 1218 10670 1278 10599 C 1302 10570 1399 10497 1435 10481 C 1485 10459 1553 10440 1585 10440 C 1602 10440 1621 10436 1627 10432 C 1640 10424 1670 10286 1670 10234 C 1670 10205 1664 10200 1603 10169 C 1515 10126 1421 10032 1380 9944 C 1309 9796 1315 9629 1398 9473 C 1422 9426 1527 9328 1592 9291 C 1707 9226 1920 9225 2045 9288 C 2067 9299 2118 9339 2158 9375 C 2242 9453 2289 9539 2309 9656 C 2333 9794 2284 9958 2185 10068 C 2140 10118 2140 10123 2178 10182 C 2187 10197 2233 10271 2279 10347 C 2326 10423 2382 10514 2404 10550 C 2427 10586 2450 10624 2457 10635 C 2463 10646 2495 10697 2527 10748 C 2559 10800 2592 10854 2601 10868 C 2616 10894 2620 10895 2682 10892 C 2818 10884 2944 10951 2999 11058 C 3046 11150 3042 11272 2989 11362 L 2960 11411 L 2992 11455 C 3010 11479 3035 11514 3048 11532 C 3070 11563 3138 11657 3295 11875 C 3330 11925 3373 11985 3390 12008 C 3412 12039 3427 12050 3438 12047 C 3447 12044 3482 12031 3515 12019 C 3596 11990 3766 11981 3830 12004 C 3862 12015 3878 12016 3887 12008 C 3899 11999 3929 11943 3983 11836 L 4002 11797 L 3975 11740 C 3947 11682 3946 11656 3965 11562 C 3973 11528 3964 11512 3878 11410 C 3858 11385 3813 11331 3780 11290 C 3746 11249 3706 11199 3690 11180 C 3675 11161 3636 11114 3605 11075 C 3574 11037 3533 10987 3514 10965 C 3496 10943 3466 10906 3448 10883 C 3361 10773 3218 10600 3209 10594 C 3203 10591 3168 10587 3131 10586 C 3052 10584 3004 10559 2959 10497 C 2934 10463 2930 10448 2930 10393 C 2930 10317 2954 10264 3004 10225 C 3023 10211 3041 10193 3044 10185 C 3047 10177 3043 10109 3035 10033 C 3027 9957 3020 9873 3020 9845 C 3020 9765 3013 9752 2966 9741 C 2869 9718 2801 9681 2746 9620 C 2568 9422 2625 9104 2860 8986 C 3058 8886 3310 8973 3408 9175 C 3426 9210 3440 9254 3440 9272 C 3440 9290 3444 9310 3448 9317 C 3459 9334 3506 9350 3548 9350 C 3568 9350 3620 9357 3663 9365 C 3706 9373 3762 9380 3786 9380 C 3833 9380 3832 9381 3865 9300 C 3883 9255 3951 9162 3997 9119 C 4112 9010 4307 8951 4457 8979 C 4547 8996 4612 9023 4686 9076 C 4789 9149 4839 9213 4896 9350 C 4923 9414 4923 9636 4896 9700 C 4865 9775 4838 9823 4803 9866 C 4785 9889 4770 9914 4770 9922 C 4770 9930 4785 9954 4803 9976 C 4821 9997 4845 10027 4855 10041 C 4866 10055 4922 10128 4979 10203 L 5082 10340 L 5147 10340 C 5224 10340 5254 10354 5308 10415 L 5348 10460 L 5491 10459 C 5570 10458 5660 10455 5690 10452 L 5745 10445 L 5763 10385 C 5794 10281 5840 10202 5911 10127 C 5948 10088 5977 10053 5976 10050 C 5974 10047 5866 9829 5735 9565 C 5604 9301 5492 9082 5486 9078 C 5480 9074 5441 9074 5400 9077 C 5319 9083 5242 9067 5171 9029 C 5113 8998 5037 8918 5000 8849 C 4966 8787 4965 8782 4965 8670 C 4965 8558 4966 8554 5000 8491 C 5045 8407 5114 8339 5194 8300 C 5253 8271 5265 8268 5360 8269 C 5505 8269 5592 8306 5675 8402 C 5721 8457 5737 8488 5764 8580 L 5786 8655 L 5895 8673 C 5956 8683 6044 8697 6091 8705 C 6227 8729 6260 8723 6260 8677 C 6260 8646 6330 8522 6378 8468 C 6487 8347 6620 8279 6786 8260 C 6873 8250 6899 8250 6966 8264 C 7188 8310 7355 8458 7442 8687 C 7461 8736 7464 8764 7464 8875 C 7463 9006 7459 9028 7406 9152 C 7398 9169 7407 9176 7607 9320 C 7655 9354 7672 9356 7723 9335 C 7769 9316 7827 9316 7864 9335 C 7913 9361 7900 9368 8135 9185 C 8163 9163 8218 9120 8258 9090 C 8298 9060 8330 9028 8330 9019 C 8330 9010 8318 8976 8304 8944 C 8232 8781 8239 8590 8321 8429 C 8332 8409 8340 8388 8340 8383 C 8340 8370 8191 8250 8175 8250 C 8169 8250 8155 8259 8145 8270 C 8100 8319 7979 8360 7875 8360 C 7762 8360 7661 8320 7578 8242 C 7432 8106 7397 7888 7491 7712 C 7520 7658 7607 7568 7652 7544 C 7704 7516 7779 7491 7832 7484 C 7858 7480 7884 7472 7890 7465 C 7895 7459 7904 7422 7910 7384 C 7915 7346 7924 7299 7930 7280 C 7948 7218 7943 7195 7905 7165 C 7885 7151 7857 7120 7842 7098 C 7819 7062 7815 7047 7816 6981 C 7816 6869 7852 6809 7947 6761 C 7999 6735 8115 6731 8146 6755 C 8156 6763 8171 6770 8179 6770 C 8191 6770 8289 6695 8370 6624 C 8491 6517 8484 6525 8482 6482 C 8477 6405 8539 6323 8620 6299 C 8653 6289 8667 6290 8707 6305 C 8766 6327 8787 6344 8811 6392 C 8848 6464 8829 6544 8760 6602 L 8720 6637 L 8720 6846 L 8720 7055 L 8767 7090 C 8844 7147 8874 7198 8878 7280 C 8883 7365 8860 7420 8794 7482 C 8744 7529 8743 7536 8764 7655 C 8788 7783 8809 7911 8815 7965 C 8819 7993 8826 8032 8831 8053 C 8841 8090 8841 8090 8893 8090 C 9101 8091 9327 8240 9422 8440 C 9472 8547 9490 8677 9472 8801 C 9443 8993 9311 9173 9139 9253 C 9067 9287 9058 9297 9070 9341 C 9075 9360 9086 9413 9095 9460 C 9104 9507 9118 9572 9125 9605 C 9138 9664 9158 9759 9186 9893 C 9194 9930 9206 9990 9214 10028 C 9222 10065 9236 10131 9245 10175 C 9254 10219 9269 10285 9278 10322 C 9294 10389 9294 10390 9349 10417 C 9383 10434 9417 10462 9437 10488 C 9467 10528 9470 10537 9470 10605 C 9470 10673 9467 10682 9437 10722 C 9370 10809 9291 10837 9200 10804 C 9141 10783 9084 10730 9075 10689 C 9066 10651 9029 10623 8977 10615 C 8954 10612 8908 10603 8875 10595 C 8842 10588 8779 10574 8735 10565 C 8691 10556 8628 10542 8595 10535 C 8562 10528 8497 10514 8450 10505 C 8403 10496 8345 10483 8321 10477 C 8277 10467 8277 10467 8244 10506 C 8226 10527 8205 10555 8199 10567 C 8186 10591 8190 10602 8255 10715 C 8273 10748 8300 10796 8313 10821 C 8327 10846 8348 10884 8360 10906 C 8373 10927 8398 10974 8417 11010 C 8458 11087 8473 11100 8516 11100 C 8611 11100 8695 11176 8719 11285 C 8726 11316 8720 11313 8890 11375 C 8926 11388 8980 11409 9010 11420 C 9040 11432 9076 11445 9090 11450 C 9104 11455 9140 11468 9170 11480 C 9270 11520 9273 11520 9339 11452 C 9425 11365 9490 11336 9610 11332 C 9702 11328 9709 11330 9780 11363 C 9873 11407 9940 11472 9982 11559 C 10011 11619 10014 11634 10014 11720 C 10014 11808 10012 11820 9981 11883 C 9942 11962 9871 12038 9806 12070 C 9781 12082 9757 12096 9754 12102 C 9751 12107 9753 12148 9760 12193 C 9779 12331 9801 12483 9806 12518 C 9810 12545 9819 12554 9863 12576 C 9945 12618 9990 12682 9990 12757 C 9990 12773 10003 12788 10030 12805 C 10052 12819 10075 12830 10081 12830 C 10087 12830 10104 12836 10118 12844 C 10180 12877 10437 12980 10456 12980 C 10469 12980 10492 12962 10515 12934 C 10567 12871 10648 12820 10730 12799 C 10816 12776 10881 12771 10933 12784 C 10962 12792 11001 12801 11022 12804 L 11058 12811 L 11117 12723 C 11150 12675 11199 12604 11225 12565 C 11252 12527 11293 12466 11317 12431 L 11359 12368 L 11321 12316 C 11216 12175 11187 12041 11231 11895 C 11242 11856 11254 11815 11257 11804 C 11261 11786 11226 11755 11021 11601 C 10879 11494 10772 11420 10759 11420 C 10747 11420 10729 11427 10720 11435 C 10711 11443 10673 11457 10637 11466 C 10574 11482 10566 11482 10505 11465 C 10291 11407 10213 11154 10359 10988 C 10376 10968 10390 10947 10390 10941 C 10390 10934 10378 10903 10364 10872 C 10350 10841 10330 10797 10320 10775 C 10310 10753 10283 10695 10261 10647 C 10238 10598 10220 10557 10220 10554 C 10220 10552 10200 10507 10175 10454 C 10150 10402 10130 10355 10130 10350 C 10130 10329 10094 10322 10036 10332 C 9988 10341 9966 10339 9911 10325 C 9787 10291 9713 10245 9649 10158 C 9495 9952 9550 9660 9768 9527 C 9841 9482 9909 9465 10003 9467 L 10091 9468 L 10112 9422 C 10135 9371 10138 9362 10170 9280 C 10182 9250 10198 9210 10206 9192 C 10227 9143 10223 9124 10188 9099 C 10086 9029 10013 8933 9969 8810 C 9939 8725 9941 8557 9974 8467 C 10010 8367 10045 8312 10115 8245 C 10333 8035 10667 8040 10885 8257 C 10966 8338 11021 8446 11039 8561 C 11063 8716 11010 8895 10904 9013 C 10885 9033 10870 9055 10870 9062 C 10870 9073 10903 9124 11023 9296 C 11051 9337 11082 9382 11090 9395 C 11098 9408 11132 9457 11165 9505 C 11198 9552 11232 9602 11240 9615 C 11308 9721 11337 9759 11348 9759 C 11356 9760 11394 9749 11433 9736 C 11540 9701 11593 9690 11662 9690 C 11847 9690 12038 9774 12166 9913 C 12281 10037 12339 10184 12340 10354 C 12340 10476 12323 10555 12272 10659 C 12205 10797 12080 10920 11945 10979 C 11837 11026 11804 11032 11653 11028 C 11514 11025 11501 11023 11429 10993 C 11218 10906 11085 10762 11016 10545 C 10995 10480 10995 10272 11015 10215 C 11023 10193 11030 10169 11030 10162 C 11030 10141 11092 10017 11124 9975 C 11141 9953 11171 9917 11192 9895 C 11213 9873 11230 9852 11230 9847 C 11230 9843 11188 9778 11138 9704 C 11087 9629 11038 9558 11030 9545 C 11022 9532 10991 9486 10961 9443 C 10931 9400 10876 9320 10839 9265 C 10802 9209 10765 9158 10757 9152 C 10745 9142 10730 9143 10678 9162 C 10626 9181 10593 9185 10493 9186 C 10367 9187 10340 9194 10340 9229 C 10340 9238 10336 9250 10332 9256 C 10328 9261 10314 9292 10301 9325 C 10289 9358 10267 9411 10254 9443 C 10241 9475 10230 9507 10230 9514 C 10230 9521 10252 9545 10279 9568 C 10380 9654 10432 9769 10432 9908 C 10432 10036 10386 10139 10294 10223 C 10270 10245 10250 10272 10250 10283 C 10250 10294 10261 10326 10274 10354 C 10287 10382 10312 10437 10330 10475 C 10347 10514 10370 10563 10381 10585 C 10401 10628 10459 10756 10492 10833 C 10508 10868 10519 10882 10539 10885 C 10553 10888 10584 10895 10608 10900 C 10631 10906 10657 10910 10666 10910 C 10697 10910 10792 10983 10820 11028 C 10859 11090 10876 11176 10861 11234 C 10855 11259 10850 11284 10850 11289 C 10850 11304 10884 11332 11045 11455 C 11122 11513 11220 11588 11263 11621 C 11306 11653 11343 11680 11347 11680 C 11350 11680 11376 11665 11404 11646 C 11507 11578 11552 11565 11685 11565 C 11802 11565 11808 11566 11874 11599 C 11945 11634 12080 11754 12080 11782 C 12080 11790 12085 11801 12091 11807 C 12138 11854 12157 12067 12124 12164 C 12069 12324 11938 12442 11772 12480 C 11711 12494 11611 12487 11532 12463 C 11468 12444 11482 12432 11368 12600 C 11256 12766 11210 12832 11194 12851 C 11172 12876 11178 12909 11210 12950 C 11227 12971 11240 12991 11240 12996 C 11240 13000 11246 13011 11253 13019 C 11286 13060 11302 13138 11298 13247 C 11295 13345 11291 13361 11261 13425 C 11201 13549 11083 13642 10949 13671 C 10883 13685 10741 13675 10692 13652 C 10637 13627 10541 13562 10527 13539 C 10511 13514 10484 13515 10435 13545 C 10413 13559 10382 13576 10365 13584 C 10349 13592 10313 13612 10285 13628 C 10258 13644 10204 13674 10165 13695 C 9965 13804 9920 13832 9920 13848 C 9920 13857 9927 13887 9935 13914 C 9943 13941 9950 13995 9950 14033 C 9950 14375 9653 14629 9317 14575 C 9272 14568 9221 14556 9205 14549 C 9148 14524 9065 14468 9017 14422 L 8970 14375 L 8922 14400 C 8896 14413 8868 14429 8860 14436 C 8852 14442 8820 14461 8790 14478 C 8623 14569 8585 14596 8587 14621 C 8588 14634 8592 14671 8596 14703 C 8609 14816 8552 14954 8459 15033 C 8404 15080 8369 15099 8300 15116 C 8113 15162 7934 15077 7847 14901 C 7817 14840 7815 14829 7816 14735 C 7817 14649 7820 14627 7844 14577 C 7858 14545 7893 14495 7920 14466 C 7948 14437 7970 14408 7970 14402 C 7970 14395 7949 14346 7924 14293 C 7899 14239 7860 14155 7837 14105 C 7737 13891 7728 13876 7690 13868 C 7671 13865 7646 13859 7635 13855 C 7618 13850 7586 13878 7453 14017 C 7245 14235 7167 14319 7157 14337 C 7151 14346 7160 14368 7183 14403 C 7202 14432 7230 14487 7246 14525 C 7271 14586 7275 14611 7278 14722 C 7283 14893 7258 14979 7163 15105 C 7104 15185 7051 15231 6965 15281 C 6854 15344 6728 15367 6580 15350 z M 8567 14450 C 8591 14434 8613 14420 8615 14420 C 8620 14420 8841 14290 8872 14268 C 8898 14250 8899 14248 8885 14211 C 8865 14154 8857 14025 8869 13947 C 8884 13840 8944 13727 9027 13649 C 9065 13614 9122 13572 9155 13556 C 9233 13518 9371 13487 9430 13495 C 9455 13498 9480 13497 9485 13493 C 9491 13488 9504 13456 9514 13420 C 9524 13384 9538 13335 9546 13310 C 9554 13285 9573 13218 9590 13160 C 9607 13102 9625 13041 9630 13024 C 9645 12978 9642 12955 9620 12935 C 9573 12893 9557 12850 9557 12774 C 9557 12693 9565 12675 9632 12608 L 9672 12568 L 9655 12436 C 9646 12364 9635 12287 9630 12265 C 9625 12243 9620 12207 9620 12185 C 9620 12131 9610 12119 9556 12109 C 9384 12077 9241 11921 9233 11755 C 9227 11651 9224 11642 9187 11631 C 9156 11621 9135 11614 9020 11570 C 8990 11558 8946 11542 8923 11534 C 8900 11526 8844 11506 8798 11489 C 8690 11449 8663 11444 8642 11463 C 8605 11495 8560 11510 8497 11510 C 8442 11510 8427 11506 8392 11480 C 8325 11432 8300 11386 8300 11313 C 8300 11269 8307 11237 8322 11205 L 8344 11159 L 8320 11112 C 8306 11086 8269 11018 8236 10960 C 8204 10902 8158 10817 8133 10770 C 8068 10648 8067 10648 8000 10656 C 7821 10676 7651 10523 7650 10343 C 7649 10136 7858 9976 8054 10032 C 8163 10063 8251 10155 8279 10269 L 8296 10335 L 8361 10352 C 8396 10361 8463 10376 8510 10385 C 8557 10394 8620 10408 8650 10415 C 8680 10422 8743 10436 8790 10445 C 8837 10454 8900 10468 8930 10475 C 8960 10482 9008 10491 9036 10495 C 9085 10501 9087 10500 9122 10462 C 9162 10418 9162 10416 9125 10270 C 9117 10240 9101 10166 9090 10105 C 9078 10045 9065 9979 9060 9960 C 9055 9941 9044 9887 9035 9840 C 9026 9793 9012 9728 9005 9695 C 8997 9662 8984 9597 8974 9550 C 8965 9503 8950 9434 8941 9395 L 8924 9325 L 8834 9319 C 8785 9316 8725 9308 8700 9301 C 8627 9279 8528 9229 8478 9188 C 8433 9151 8397 9140 8385 9160 C 8380 9168 8204 9304 8048 9420 C 8000 9455 8000 9455 8000 9513 C 8000 9675 7846 9784 7707 9721 C 7626 9684 7580 9613 7580 9525 L 7580 9470 L 7518 9425 C 7483 9401 7426 9360 7391 9335 C 7353 9308 7321 9291 7311 9295 C 7302 9298 7277 9317 7255 9338 C 7140 9446 6964 9508 6801 9497 C 6671 9488 6576 9453 6474 9377 C 6330 9271 6239 9114 6224 8943 C 6216 8854 6214 8852 6087 8839 C 6036 8834 5970 8826 5940 8821 C 5910 8816 5857 8809 5823 8805 C 5763 8799 5760 8800 5744 8827 C 5700 8898 5674 8934 5638 8968 L 5599 9006 L 5750 9310 C 5833 9478 5945 9702 5998 9808 L 6095 10002 L 6135 9994 C 6157 9990 6216 9986 6265 9987 C 6524 9989 6739 10172 6776 10422 C 6802 10598 6746 10757 6614 10886 C 6469 11028 6222 11060 6023 10962 C 5918 10911 5809 10778 5765 10648 C 5755 10616 5741 10589 5736 10587 C 5730 10586 5640 10589 5536 10595 C 5351 10605 5347 10605 5332 10630 C 5323 10644 5298 10672 5277 10692 C 5246 10721 5227 10730 5185 10735 C 5066 10750 4994 10706 4954 10593 C 4936 10542 4936 10538 4953 10491 C 4962 10464 4970 10437 4970 10430 C 4970 10424 4926 10362 4873 10293 C 4819 10224 4749 10133 4717 10091 C 4685 10049 4653 10014 4646 10012 C 4639 10011 4602 10024 4564 10041 C 4498 10072 4489 10073 4370 10074 C 4257 10074 4238 10072 4173 10046 C 4133 10031 4091 10011 4078 10001 C 4065 9991 4050 9981 4044 9979 C 4026 9973 3958 9908 3923 9864 C 3860 9784 3811 9658 3810 9573 C 3810 9527 3781 9512 3669 9500 C 3618 9494 3555 9485 3530 9480 C 3440 9462 3434 9464 3399 9530 C 3360 9604 3277 9683 3204 9717 C 3174 9731 3146 9749 3143 9757 C 3139 9766 3144 9841 3153 9924 C 3163 10007 3170 10099 3170 10128 C 3170 10175 3173 10181 3196 10190 C 3210 10196 3243 10223 3270 10250 C 3327 10308 3340 10360 3321 10442 C 3315 10469 3310 10495 3310 10499 C 3310 10504 3344 10549 3386 10601 C 3428 10653 3513 10758 3575 10835 C 3680 10965 3765 11070 3988 11341 L 4075 11448 L 4145 11447 C 4225 11446 4271 11467 4312 11523 C 4378 11611 4369 11712 4288 11792 C 4249 11830 4231 11840 4192 11846 C 4166 11849 4137 11857 4128 11861 C 4111 11870 4010 12054 4010 12076 C 4010 12083 4041 12119 4078 12156 C 4189 12268 4239 12389 4239 12540 C 4239 12696 4186 12826 4075 12935 C 3980 13030 3872 13080 3715 13102 C 3697 13105 3694 13115 3689 13200 C 3685 13252 3682 13354 3681 13427 C 3680 13534 3683 13561 3696 13574 C 3704 13583 3716 13590 3722 13590 C 3728 13590 3760 13604 3794 13621 C 3859 13654 3934 13726 3961 13782 C 4008 13878 4012 13895 4009 13998 C 4007 14053 4008 14101 4011 14104 C 4014 14107 4072 14138 4140 14173 C 4209 14208 4346 14279 4444 14329 L 4623 14421 L 4664 14380 C 4761 14279 4858 14240 5007 14240 L 5101 14240 L 5121 14193 C 5133 14166 5146 14134 5150 14120 C 5155 14106 5188 14023 5225 13935 C 5262 13847 5294 13767 5297 13758 C 5301 13746 5281 13720 5233 13673 C 5159 13601 5140 13570 5109 13476 C 5065 13341 5101 13180 5200 13067 C 5244 13018 5339 12950 5365 12950 C 5391 12950 5393 12924 5376 12827 C 5367 12776 5352 12695 5344 12645 C 5314 12469 5297 12395 5286 12388 C 5280 12384 5245 12380 5209 12380 C 5113 12380 4984 12331 4888 12259 C 4831 12215 4741 12112 4708 12052 C 4615 11880 4616 11669 4711 11473 C 4757 11380 4880 11257 4970 11214 C 5094 11155 5135 11145 5265 11146 C 5361 11146 5397 11150 5446 11168 C 5678 11249 5827 11421 5877 11665 C 5885 11705 5885 11705 5940 11712 C 5970 11715 6050 11718 6117 11719 L 6239 11720 L 6266 11682 C 6314 11615 6354 11595 6435 11596 C 6497 11597 6510 11601 6552 11630 L 6599 11663 L 6652 11641 C 6681 11629 6714 11615 6725 11610 C 6736 11606 6770 11592 6800 11580 C 6871 11553 6880 11549 6975 11508 L 7055 11474 L 7061 11380 C 7069 11264 7099 11194 7174 11117 C 7260 11028 7328 10998 7453 10998 C 7598 10998 7706 11056 7784 11174 C 7870 11305 7873 11445 7794 11593 L 7769 11640 L 7797 11679 C 7812 11700 7909 11813 8011 11931 C 8114 12049 8210 12160 8225 12178 C 8240 12195 8257 12210 8263 12210 C 8269 12210 8310 12195 8355 12176 C 8416 12150 8455 12140 8520 12136 C 8633 12127 8705 12141 8804 12189 C 9032 12301 9150 12541 9095 12786 C 9073 12884 9057 12919 8998 12998 C 8896 13136 8730 13220 8561 13220 C 8487 13220 8412 13201 8320 13158 L 8256 13128 L 8230 13157 C 7922 13509 7899 13537 7900 13557 C 7901 13567 7903 13608 7906 13648 C 7911 13717 7910 13723 7880 13770 C 7850 13817 7849 13821 7863 13847 C 7872 13862 7887 13895 7898 13920 C 7909 13945 7933 13997 7950 14035 C 8104 14372 8087 14346 8155 14342 C 8216 14338 8327 14360 8377 14385 C 8394 14393 8427 14418 8451 14440 C 8475 14461 8501 14479 8509 14480 C 8516 14480 8542 14467 8567 14450 z M 7105 14188 C 7132 14159 7224 14061 7310 13970 C 7514 13753 7510 13758 7510 13744 C 7510 13737 7506 13728 7500 13725 C 7484 13715 7488 13597 7505 13574 C 7533 13538 7537 13544 7278 13223 C 7225 13157 7215 13152 7172 13174 C 7157 13181 7110 13193 7068 13200 C 6920 13224 6775 13175 6663 13061 C 6596 12993 6588 12991 6515 13025 C 6491 13036 6257 13133 6165 13170 C 6138 13181 6054 13217 6005 13239 L 5966 13257 L 5964 13361 C 5962 13474 5949 13521 5898 13598 C 5862 13652 5863 13667 5903 13711 C 5920 13731 5960 13778 5990 13815 C 6020 13853 6074 13918 6110 13960 C 6146 14002 6206 14075 6244 14121 C 6282 14167 6319 14209 6326 14213 C 6334 14218 6365 14209 6403 14191 C 6593 14102 6822 14112 6980 14216 C 7032 14250 7050 14246 7105 14188 z M 9932 13669 C 9959 13653 9983 13640 9985 13640 C 9987 13640 10023 13620 10064 13595 C 10106 13570 10142 13550 10144 13550 C 10147 13550 10194 13523 10250 13490 C 10306 13457 10355 13430 10360 13430 C 10365 13430 10382 13419 10398 13405 L 10428 13380 L 10413 13322 C 10403 13286 10400 13242 10403 13200 C 10408 13131 10399 13100 10374 13100 C 10365 13100 10346 13094 10332 13086 C 10317 13078 10238 13044 10155 13010 C 10025 12956 9977 12936 9948 12923 C 9945 12921 9928 12931 9911 12945 C 9895 12959 9858 12979 9829 12988 C 9772 13008 9768 13016 9726 13165 C 9701 13256 9683 13316 9650 13422 C 9634 13476 9623 13525 9625 13532 C 9628 13539 9649 13554 9671 13565 C 9694 13576 9742 13612 9779 13647 C 9852 13716 9853 13716 9932 13669 z M 7819 13422 C 7858 13381 7877 13360 8025 13190 C 8080 13127 8130 13071 8137 13067 C 8154 13057 8154 13014 8137 13007 C 8130 13004 8105 12964 8082 12918 C 8051 12856 8037 12813 8030 12759 C 8020 12676 8030 12543 8050 12495 C 8079 12426 8096 12393 8123 12359 C 8138 12339 8150 12315 8150 12306 C 8150 12292 8061 12186 7865 11965 C 7831 11927 7773 11860 7736 11818 C 7699 11775 7665 11740 7661 11740 C 7656 11740 7624 11749 7590 11760 C 7429 11812 7247 11762 7150 11640 C 7115 11596 7105 11593 7063 11614 C 7048 11622 7000 11642 6958 11659 C 6915 11676 6845 11704 6803 11721 C 6639 11787 6652 11777 6634 11838 C 6604 11943 6541 11993 6440 11993 C 6362 11994 6303 11965 6268 11908 C 6255 11888 6236 11867 6225 11861 C 6192 11845 5893 11837 5883 11852 C 5875 11864 5856 11927 5843 11980 C 5831 12029 5747 12156 5691 12209 C 5631 12266 5576 12302 5495 12337 L 5445 12359 L 5447 12422 C 5448 12478 5458 12545 5492 12718 C 5497 12747 5505 12798 5510 12831 C 5520 12902 5532 12920 5572 12920 C 5615 12920 5716 12957 5774 12994 C 5802 13012 5846 13049 5871 13077 L 5916 13128 L 5951 13113 C 5970 13105 5999 13093 6015 13085 C 6032 13078 6081 13058 6125 13040 C 6169 13022 6225 12998 6250 12988 C 6275 12977 6306 12964 6320 12958 C 6334 12953 6358 12942 6373 12934 C 6389 12926 6406 12920 6411 12920 C 6416 12920 6449 12906 6484 12890 L 6548 12859 L 6543 12782 C 6535 12658 6576 12533 6653 12450 C 6718 12380 6761 12353 6888 12306 C 7051 12245 7314 12361 7401 12532 C 7434 12597 7460 12692 7460 12751 C 7460 12836 7419 12953 7363 13028 C 7333 13067 7337 13080 7394 13150 C 7451 13220 7451 13219 7531 13325 C 7573 13380 7613 13430 7621 13437 C 7629 13444 7665 13451 7700 13453 C 7736 13455 7769 13457 7774 13458 C 7778 13459 7799 13443 7819 13422 z M 3198 12298 C 3221 12252 3256 12197 3275 12176 C 3294 12154 3310 12132 3310 12127 C 3310 12119 3248 12033 2979 11666 C 2869 11516 2851 11495 2829 11499 C 2816 11501 2769 11503 2725 11504 C 2655 11505 2638 11501 2587 11476 C 2521 11442 2463 11378 2437 11312 C 2403 11225 2425 11074 2481 11014 C 2491 11003 2500 10987 2500 10978 C 2500 10969 2472 10916 2438 10860 C 2403 10805 2364 10740 2351 10717 C 2338 10694 2308 10646 2285 10610 C 2262 10574 2200 10473 2146 10385 C 2013 10164 2031 10183 1967 10203 C 1937 10212 1895 10220 1872 10220 C 1820 10220 1803 10238 1795 10298 C 1792 10324 1785 10367 1781 10395 C 1776 10422 1774 10448 1776 10452 C 1779 10456 1809 10474 1843 10492 C 2085 10621 2163 10933 2007 11150 C 1963 11210 1895 11270 1830 11304 C 1791 11325 1760 11346 1760 11353 C 1761 11379 1788 11518 1794 11529 C 1798 11535 1821 11540 1845 11540 C 1946 11540 2094 11590 2193 11659 C 2294 11728 2428 11898 2446 11980 C 2449 11994 2458 12023 2465 12045 C 2473 12067 2481 12121 2484 12165 C 2488 12208 2493 12247 2498 12252 C 2502 12256 2543 12266 2590 12275 C 2637 12284 2709 12297 2750 12305 C 2791 12313 2870 12327 2925 12336 C 2980 12345 3050 12358 3080 12365 C 3110 12372 3140 12378 3146 12379 C 3152 12380 3175 12343 3198 12298 z M 8617 8150 C 8701 8117 8702 8114 8695 8056 C 8688 7997 8666 7851 8645 7735 C 8638 7691 8629 7633 8625 7607 C 8620 7567 8613 7556 8587 7539 C 8569 7529 8548 7520 8539 7520 C 8511 7520 8425 7426 8412 7382 C 8382 7282 8407 7180 8479 7119 C 8504 7097 8536 7074 8550 7067 C 8573 7055 8576 7047 8581 6965 C 8585 6915 8588 6822 8589 6758 C 8590 6626 8587 6622 8528 6668 C 8476 6708 8361 6802 8316 6842 L 8277 6876 L 8288 6922 C 8316 7033 8243 7162 8128 7205 C 8075 7225 8069 7236 8049 7355 C 8030 7472 8031 7502 8055 7515 C 8153 7566 8241 7653 8280 7735 C 8333 7849 8333 7996 8279 8113 C 8264 8145 8268 8149 8369 8223 L 8432 8270 L 8496 8221 C 8531 8194 8586 8162 8617 8150 z" stroke-linecap="round" />
</g>
		<g transform="matrix(0.13 0 0 -0.13 -305.59 -347.43)"  >
<path style="stroke: none; stroke-width: 1; stroke-dasharray: none; stroke-linecap: butt; stroke-dashoffset: 0; stroke-linejoin: miter; stroke-miterlimit: 4; fill: rgb(0,0,0); fill-rule: nonzero; opacity: 1;" vector-effect="non-scaling-stroke"  transform=" translate(-4455.59, -13429.65)" d="M 4396 13624 C 4211 13557 4201 13318 4379 13239 C 4434 13215 4476 13215 4532 13240 C 4614 13276 4660 13342 4660 13425 C 4660 13519 4612 13587 4523 13620 C 4461 13643 4449 13644 4396 13624 z" stroke-linecap="round" />
</g>
		<g transform="matrix(0.13 0 0 -0.13 -336.96 4.97)"  >
<path style="stroke: none; stroke-width: 1; stroke-dasharray: none; stroke-linecap: butt; stroke-dashoffset: 0; stroke-linejoin: miter; stroke-miterlimit: 4; fill: rgb(0,0,0); fill-rule: nonzero; opacity: 1;" vector-effect="non-scaling-stroke"  transform=" translate(-4220.28, -10786.69)" d="M 4134 11165 C 4017 11133 3916 11050 3864 10943 C 3827 10867 3819 10748 3845 10668 C 3882 10557 3968 10464 4080 10415 C 4115 10399 4146 10395 4225 10395 C 4314 10396 4331 10399 4382 10424 C 4464 10464 4543 10542 4577 10615 C 4614 10694 4622 10833 4594 10907 C 4545 11037 4440 11131 4309 11164 C 4232 11183 4202 11183 4134 11165 z" stroke-linecap="round" />
</g>
</g>
</g>
</svg>